<svg version="1.2" xmlns="http://www.w3.org/2000/svg" viewBox="0 0 1513 1482" width="1513" height="1482">
	<title>jamf-svg</title>
	<style>
		.s0 { fill: #778eb1 } 
	</style>
	<path id="Layer" class="s0" d="m1438.6 247.5c42.4 0 74.1 31.8 74.1 74.1v1082.8c0 42.3-35.3 77.6-77.6 77.6h-1361.1c-42.3 0-74-31.7-74-70.5v-215.2c0-42.3 35.3-77.6 77.6-77.6h335c144.5 0 225.6-56.4 275-194l134-419.7c52.9-176.3 169.2-257.5 363.2-257.5zm-1357.6-246.8h648.8c52.9 0 91.7 45.8 81.1 98.7-28.2 137.6-77.6 373.9-77.6 373.9-49.3 232.8-232.7 261-363.1 261h-289.2c-45.8 0-81.1-35.3-81.1-81.1v-571.4c0-42.3 38.8-81.1 81.1-81.1z"/>
</svg>